HIERARCHY
ROOT Hips
{
	OFFSET 0.000000 100.481300 0.000000
	CHANNELS 6 Xposition Yposition Zposition Xrotation Yrotation Zrotation 
	JOINT Spine
	{
		OFFSET -0.279200 12.230698 -2.892100
		CHANNELS 3 Xrotation Yrotation Zrotation
		JOINT Spine1
		{
			OFFSET -0.232667 10.192268 -1.242267
			CHANNELS 3 Xrotation Yrotation Zrotation
			JOINT Spine1_split
			{
				OFFSET -0.232667 10.192268 -1.242267
				CHANNELS 3 Xrotation Yrotation Zrotation
				JOINT Spine2
				{
					OFFSET -0.232667 10.192268 -1.242267
					CHANNELS 3 Xrotation Yrotation Zrotation
					JOINT Neck
					{
						OFFSET -0.418800 17.814194 8.416900
						CHANNELS 3 Xrotation Yrotation Zrotation
						JOINT Head
						{
							OFFSET 0.000000 7.031097 3.806800
							CHANNELS 3 Xrotation Yrotation Zrotation
							JOINT HeadTop_End
							{
								OFFSET 0.000000 24.646606 12.978600
								CHANNELS 3 Xrotation Yrotation Zrotation
								End Site
								{
									OFFSET 0.000000 0.000000 0.000000
								}
							}
						}
					}
					JOINT LeftShoulder
					{
						OFFSET 8.476499 7.247704 -3.868750
						CHANNELS 3 Xrotation Yrotation Zrotation
						JOINT LeftShoulder_split
						{
							OFFSET 8.476499 7.247704 -3.868750
							CHANNELS 3 Xrotation Yrotation Zrotation
							JOINT LeftArm
							{
								OFFSET 9.308998 -2.777710 0.208600
								CHANNELS 3 Xrotation Yrotation Zrotation
								JOINT LeftForeArm
								{
									OFFSET 29.972298 0.000000 0.000000
									CHANNELS 3 Xrotation Yrotation Zrotation
									JOINT LeftHand
									{
										OFFSET 26.026505 0.000000 0.000000
										CHANNELS 3 Xrotation Yrotation Zrotation
										JOINT LeftHandThumb1
										{
											OFFSET 12.240501 -7.147949 9.207150
											CHANNELS 3 Xrotation Yrotation Zrotation
											JOINT LeftHandThumb2
											{
												OFFSET 4.138618 -2.389435 2.389433
												CHANNELS 3 Xrotation Yrotation Zrotation
												JOINT LeftHandThumb3
												{
													OFFSET 2.726913 -1.574387 1.574386
													CHANNELS 3 Xrotation Yrotation Zrotation
													JOINT LeftHandThumb4
													{
														OFFSET 3.941010 -2.275345 2.275342
														CHANNELS 3 Xrotation Yrotation Zrotation
														End Site
														{
															OFFSET 0.000000 0.000000 0.000000
														}
													}
												}
											}
										}
										JOINT LeftHandIndex1
										{
											OFFSET 24.424698 -1.985611 5.953459
											CHANNELS 3 Xrotation Yrotation Zrotation
											JOINT LeftHandIndex2
											{
												OFFSET 6.426697 0.000000 0.000000
												CHANNELS 3 Xrotation Yrotation Zrotation
												JOINT LeftHandIndex3
												{
													OFFSET 5.337898 0.000000 0.000000
													CHANNELS 3 Xrotation Yrotation Zrotation
													JOINT LeftHandIndex4
													{
														OFFSET 4.409401 0.000000 0.000000
														CHANNELS 3 Xrotation Yrotation Zrotation
														End Site
														{
															OFFSET 0.000000 0.000000 0.000000
														}
													}
												}
											}
										}
										JOINT LeftHandMiddle1
										{
											OFFSET 23.810104 0.000000 0.000000
											CHANNELS 3 Xrotation Yrotation Zrotation
											JOINT LeftHandMiddle2
											{
												OFFSET 7.176498 0.000000 0.000000
												CHANNELS 3 Xrotation Yrotation Zrotation
												JOINT LeftHandMiddle3
												{
													OFFSET 6.774902 0.000000 0.000000
													CHANNELS 3 Xrotation Yrotation Zrotation
													JOINT LeftHandMiddle4
													{
														OFFSET 5.403328 0.000000 0.000000
														CHANNELS 3 Xrotation Yrotation Zrotation
														End Site
														{
															OFFSET 0.000000 0.000000 0.000000
														}
													}
												}
											}
										}
										JOINT LeftHandRing1
										{
											OFFSET 22.908401 -0.839279 -6.020567
											CHANNELS 3 Xrotation Yrotation Zrotation
											JOINT LeftHandRing2
											{
												OFFSET 6.337502 0.000000 0.000000
												CHANNELS 3 Xrotation Yrotation Zrotation
												JOINT LeftHandRing3
												{
													OFFSET 5.779297 0.000000 0.000000
													CHANNELS 3 Xrotation Yrotation Zrotation
													JOINT LeftHandRing4
													{
														OFFSET 4.965698 0.000000 0.000000
														CHANNELS 3 Xrotation Yrotation Zrotation
														End Site
														{
															OFFSET 0.000000 0.000000 0.000000
														}
													}
												}
											}
										}
										JOINT LeftHandPinky1
										{
											OFFSET 20.037003 -1.530319 -10.950146
											CHANNELS 3 Xrotation Yrotation Zrotation
											JOINT LeftHandPinky2
											{
												OFFSET 5.254700 0.000000 0.000000
												CHANNELS 3 Xrotation Yrotation Zrotation
												JOINT LeftHandPinky3
												{
													OFFSET 4.810204 0.000000 0.000000
													CHANNELS 3 Xrotation Yrotation Zrotation
													JOINT LeftHandPinky4
													{
														OFFSET 3.647202 0.000000 0.000000
														CHANNELS 3 Xrotation Yrotation Zrotation
														End Site
														{
															OFFSET 0.000000 0.000000 0.000000
														}
													}
												}
											}
										}
									}
								}
							}
						}
					}
					JOINT RightShoulder
					{
						OFFSET -7.570500 7.247704 -3.868750
						CHANNELS 3 Xrotation Yrotation Zrotation
						JOINT RightShoulder_split
						{
							OFFSET -7.570500 7.247704 -3.868750
							CHANNELS 3 Xrotation Yrotation Zrotation
							JOINT RightArm
							{
								OFFSET -9.308998 -2.777710 0.208500
								CHANNELS 3 Xrotation Yrotation Zrotation
								JOINT RightForeArm
								{
									OFFSET -29.972300 0.000000 0.000000
									CHANNELS 3 Xrotation Yrotation Zrotation
									JOINT RightHand
									{
										OFFSET -26.026505 0.000000 0.000000
										CHANNELS 3 Xrotation Yrotation Zrotation
										JOINT RightHandThumb1
										{
											OFFSET -12.240601 -7.148026 9.207092
											CHANNELS 3 Xrotation Yrotation Zrotation
											JOINT RightHandThumb2
											{
												OFFSET -4.138618 -2.389435 2.389433
												CHANNELS 3 Xrotation Yrotation Zrotation
												JOINT RightHandThumb3
												{
													OFFSET -2.726974 -1.574417 1.574421
													CHANNELS 3 Xrotation Yrotation Zrotation
													JOINT RightHandThumb4
													{
														OFFSET -3.941010 -2.275345 2.275343
														CHANNELS 3 Xrotation Yrotation Zrotation
														End Site
														{
															OFFSET 0.000000 0.000000 0.000000
														}
													}
												}
											}
										}
										JOINT RightHandIndex1
										{
											OFFSET -24.424698 -1.985657 5.953444
											CHANNELS 3 Xrotation Yrotation Zrotation
											JOINT RightHandIndex2
											{
												OFFSET -6.426697 0.000000 0.000000
												CHANNELS 3 Xrotation Yrotation Zrotation
												JOINT RightHandIndex3
												{
													OFFSET -5.337898 0.000000 0.000000
													CHANNELS 3 Xrotation Yrotation Zrotation
													JOINT RightHandIndex4
													{
														OFFSET -4.409401 0.000000 0.000000
														CHANNELS 3 Xrotation Yrotation Zrotation
														End Site
														{
															OFFSET 0.000000 0.000000 0.000000
														}
													}
												}
											}
										}
										JOINT RightHandMiddle1
										{
											OFFSET -23.810097 0.000000 0.000000
											CHANNELS 3 Xrotation Yrotation Zrotation
											JOINT RightHandMiddle2
											{
												OFFSET -7.176498 0.000000 0.000000
												CHANNELS 3 Xrotation Yrotation Zrotation
												JOINT RightHandMiddle3
												{
													OFFSET -6.774902 0.000000 0.000000
													CHANNELS 3 Xrotation Yrotation Zrotation
													JOINT RightHandMiddle4
													{
														OFFSET -5.403328 0.000000 0.000000
														CHANNELS 3 Xrotation Yrotation Zrotation
														End Site
														{
															OFFSET 0.000000 0.000000 0.000000
														}
													}
												}
											}
										}
										JOINT RightHandRing1
										{
											OFFSET -22.908302 -0.839325 -6.020576
											CHANNELS 3 Xrotation Yrotation Zrotation
											JOINT RightHandRing2
											{
												OFFSET -6.337502 0.000000 0.000000
												CHANNELS 3 Xrotation Yrotation Zrotation
												JOINT RightHandRing3
												{
													OFFSET -5.779297 0.000000 0.000000
													CHANNELS 3 Xrotation Yrotation Zrotation
													JOINT RightHandRing4
													{
														OFFSET -4.965698 0.000000 0.000000
														CHANNELS 3 Xrotation Yrotation Zrotation
														End Site
														{
															OFFSET 0.000000 0.000000 0.000000
														}
													}
												}
											}
										}
										JOINT RightHandPinky1
										{
											OFFSET -20.037003 -1.530334 -10.950259
											CHANNELS 3 Xrotation Yrotation Zrotation
											JOINT RightHandPinky2
											{
												OFFSET -5.254700 0.000000 0.000000
												CHANNELS 3 Xrotation Yrotation Zrotation
												JOINT RightHandPinky3
												{
													OFFSET -4.810204 0.000000 0.000000
													CHANNELS 3 Xrotation Yrotation Zrotation
													JOINT RightHandPinky4
													{
														OFFSET -3.647202 0.000000 0.000000
														CHANNELS 3 Xrotation Yrotation Zrotation
														End Site
														{
															OFFSET 0.000000 0.000000 0.000000
														}
													}
												}
											}
										}
									}
								}
							}
						}
					}
				}
			}
		}
	}
	JOINT LeftUpLeg
	{
		OFFSET 15.427100 -6.655098 0.678600
		CHANNELS 3 Xrotation Yrotation Zrotation
		JOINT LeftLeg
		{
			OFFSET 4.081073 -39.591068 13.024000
			CHANNELS 3 Xrotation Yrotation Zrotation
			JOINT LeftFoot
			{
				OFFSET -4.081074 -37.707932 -15.979700
				CHANNELS 3 Xrotation Yrotation Zrotation
				JOINT LeftToeBase
				{
					OFFSET 5.346399 -15.068900 20.645000
					CHANNELS 3 Xrotation Yrotation Zrotation
					JOINT LeftToe_End
					{
						OFFSET 2.754700 0.931300 11.300900
						CHANNELS 3 Xrotation Yrotation Zrotation
						End Site
						{
							OFFSET 0.000000 0.000000 0.000000
						}
					}
				}
			}
		}
	}
	JOINT RightUpLeg
	{
		OFFSET -15.569500 -6.655098 0.678600
		CHANNELS 3 Xrotation Yrotation Zrotation
		JOINT RightLeg
		{
			OFFSET -4.081825 -39.591045 13.023800
			CHANNELS 3 Xrotation Yrotation Zrotation
			JOINT RightFoot
			{
				OFFSET 4.081824 -37.707954 -15.979600
				CHANNELS 3 Xrotation Yrotation Zrotation
				JOINT RightToeBase
				{
					OFFSET -5.346400 -15.068900 20.645000
					CHANNELS 3 Xrotation Yrotation Zrotation
					JOINT RightToe_End
					{
						OFFSET -2.754700 0.931300 11.300900
						CHANNELS 3 Xrotation Yrotation Zrotation
						End Site
						{
							OFFSET 0.000000 0.000000 0.000000
						}
					}
				}
			}
		}
	}
}
MOTION
Frames: 4
Frame Time: 0.016667
-2.236630 90.743958 -3.309779 1.781906 -44.844946 5.233668 6.696803 0.731479 -1.269813 -0.557035 1.560397 -1.610231 0.000000 0.000000 0.000000 -0.534577 1.560480 -1.609754 -19.005377 -1.508401 20.421618 -4.556858 11.720416 -16.000780 -0.000000 -0.000002 -0.000001 -8.631163 -5.317964 -15.297510 0.000000 0.000000 0.000000 0.075338 -2.626988 -31.066808 42.317492 -37.063369 15.465982 -23.800368 3.779313 5.091215 7.895969 12.754498 1.888080 -2.399854 10.098196 -6.912107 -0.568292 -1.710787 -0.126062 -0.000001 0.000001 -0.000005 10.366010 -5.431331 -20.260059 0.012388 0.242543 -14.888682 0.039943 0.202428 -15.802001 -0.000000 0.000002 -0.000000 8.099318 -3.521126 -16.129439 0.036822 0.594732 -11.734536 0.066876 0.099132 -13.782852 -0.000000 -0.000001 0.000000 7.437965 -2.616146 -14.483980 -0.036255 0.187704 -10.043027 0.074416 0.705344 -11.823658 -0.000000 0.000001 -0.000001 6.501837 -1.624417 -10.619929 -0.001458 0.148128 -9.427971 0.020467 0.150246 -10.028553 -0.000000 -0.000000 -0.000000 -0.620556 15.164821 -23.726496 0.000000 0.000000 0.000000 -69.097042 11.570650 13.062488 113.321574 148.813744 -130.632491 -14.646393 20.622257 10.268463 0.299576 -0.474262 0.374516 -3.620649 -7.484573 8.065549 -7.732035 18.632382 10.285494 -0.000002 0.000001 -0.000002 10.001350 7.473627 21.241253 -0.008299 -0.266160 15.389782 0.024008 -0.209787 16.753278 -0.000001 -0.000001 0.000003 6.820048 4.437974 24.757436 0.121749 -0.593783 18.466432 0.129268 -0.058505 20.393242 0.000000 0.000005 -0.000000 4.875290 1.715986 32.191931 -0.003223 -0.241521 22.203673 0.216434 -0.687001 23.470763 0.000000 0.000004 0.000001 3.061667 -1.343054 39.368042 0.068279 -0.198068 27.160239 0.102724 -0.170586 27.969051 -0.000002 -0.000002 -0.000000 -24.471542 6.929314 12.268261 13.916915 -8.365793 3.847746 7.949478 -2.702923 -19.078839 -0.682248 1.033309 1.622976 0.000000 -0.000001 -0.000000 -7.570292 -6.714407 -20.256205 23.370442 -8.962881 -6.871699 -11.683085 -8.231449 25.257590 -3.009363 -0.947794 -1.024249 0.000000 0.000002 0.000000 
-1.700045 90.412071 -3.321196 1.868984 -45.796859 5.421321 6.832796 0.749276 -1.165978 -0.284724 1.586141 -1.496925 0.000000 0.000000 0.000000 -0.262262 1.586188 -1.496445 -19.292211 0.711443 20.366997 -3.643170 13.440626 -15.407659 -0.000000 0.000000 0.000001 -8.545907 -5.440109 -14.847627 0.000000 0.000000 0.000000 0.040956 -2.007581 -31.692194 42.522483 -37.721175 16.179323 -23.412171 3.306873 4.559600 7.803331 12.376344 1.963676 -2.337379 10.219256 -6.846310 -0.549671 -1.671628 -0.089618 -0.000000 0.000000 -0.000002 10.515337 -5.092632 -20.325953 0.011419 0.243642 -15.207507 0.039225 0.204124 -16.203082 0.000001 0.000000 -0.000000 8.128691 -3.265522 -16.334855 0.039429 0.596865 -12.096718 0.072117 0.102290 -14.362018 -0.000000 -0.000001 -0.000000 7.412088 -2.391982 -14.908262 -0.036560 0.190008 -10.461723 0.079905 0.708816 -12.423735 -0.000000 -0.000000 -0.000000 6.330475 -1.420208 -11.092620 0.000940 0.151181 -10.093310 0.024304 0.153692 -10.743849 -0.000000 0.000001 -0.000001 -1.211231 15.565825 -20.539009 0.000000 0.000000 0.000000 -65.286384 12.486777 13.348866 113.302293 142.450780 -129.003791 -15.346288 19.991274 10.507305 0.841609 -1.185474 0.646260 -3.543946 -7.625418 7.985604 -7.479420 18.180131 9.940032 0.000003 -0.000001 -0.000000 10.272585 7.143734 23.988108 -0.006356 -0.268624 17.205518 0.030097 -0.210450 18.918794 -0.000000 0.000004 -0.000000 6.758868 4.033188 27.064514 0.133521 -0.599025 20.307606 0.143196 -0.063037 22.448380 -0.000000 -0.000004 -0.000000 4.642732 1.320738 34.431759 -0.002028 -0.250333 23.879677 0.235114 -0.687133 25.274948 -0.000000 -0.000002 -0.000001 2.590318 -1.663336 41.407400 0.074438 -0.202441 28.788861 0.111337 -0.174773 29.632803 -0.000001 -0.000000 -0.000002 -24.730800 7.046952 12.628910 14.666557 -7.762361 3.389087 7.339468 -2.519502 -18.934008 -0.494926 1.041969 1.287123 0.000000 -0.000001 -0.000000 -8.875699 -6.267928 -20.511451 24.264829 -8.163863 -7.304566 -11.579187 -8.070750 25.413529 -2.472750 -0.956158 -1.031981 -0.000000 0.000000 -0.000000 
-1.172343 90.067688 -3.336665 1.968038 -46.743021 5.623924 6.990110 0.762238 -1.078462 0.030507 1.602060 -1.410631 0.000000 0.000000 0.000000 0.052968 1.602113 -1.410148 -19.678864 2.847926 20.261700 -2.884407 15.081099 -14.720874 -0.000001 0.000002 0.000000 -8.451880 -5.621932 -14.376198 0.000000 0.000000 0.000000 -0.075746 -1.533866 -32.297943 42.235369 -38.238582 16.524073 -22.717006 2.721475 4.212275 7.702773 11.981678 2.047344 -2.271936 10.346042 -6.777504 -0.530358 -1.630630 -0.051306 -0.000001 0.000001 -0.000003 10.666653 -4.778059 -20.352533 0.010611 0.244547 -15.498652 0.038647 0.205783 -16.591264 -0.000000 -0.000000 -0.000000 8.160054 -3.018651 -16.524661 0.041927 0.599012 -12.447971 0.077597 0.105440 -14.954462 0.000000 -0.000001 -0.000000 7.387562 -2.161924 -15.340875 -0.036749 0.192293 -10.886808 0.085617 0.712410 -13.047592 -0.000000 0.000000 -0.000001 6.154518 -1.190085 -11.592646 0.003687 0.154457 -10.790895 0.028492 0.157224 -11.497514 0.000000 -0.000000 0.000001 -1.838004 15.913861 -17.234357 0.000000 0.000000 0.000000 -61.208617 13.459266 13.486395 111.295549 139.193477 -126.470146 -13.055770 19.376671 10.856544 1.302486 -1.793397 0.752545 -3.461109 -7.778566 7.899728 -7.223425 17.713891 9.587571 0.000003 0.000003 -0.000005 10.560494 6.834454 26.258659 -0.005029 -0.270958 18.813696 0.035079 -0.210907 20.813989 0.000000 -0.000002 -0.000000 6.734493 3.630415 28.949245 0.144538 -0.603031 21.917403 0.156280 -0.066275 24.248160 -0.000000 0.000001 0.000001 4.449673 0.905848 36.260351 -0.000538 -0.257389 25.307393 0.251676 -0.686044 26.832704 0.000001 0.000001 -0.000000 2.154139 -2.026318 43.046717 0.080088 -0.205636 30.188186 0.119217 -0.177812 31.056860 0.000001 -0.000002 -0.000001 -25.090796 7.128849 12.997745 15.541288 -7.174531 2.946746 6.842372 -2.372669 -18.802006 -0.321651 1.048728 0.978180 -0.000000 0.000000 0.000000 -10.181924 -5.788536 -20.749852 25.170586 -7.370067 -7.701005 -11.490648 -7.896110 25.536038 -2.157556 -0.960770 -1.044613 0.000000 -0.000003 -0.000000 
-0.653531 89.671814 -3.336666 2.080224 -47.676025 5.826806 7.165268 0.777243 -0.988970 0.381789 1.616029 -1.339484 0.000000 0.000000 0.000000 0.404243 1.616082 -1.339005 -20.090184 4.892750 20.079761 -2.370507 16.634106 -14.025584 0.000002 -0.000000 -0.000000 -8.350765 -5.895205 -13.889794 0.000000 0.000000 0.000000 -0.307275 -1.191913 -32.855525 41.504881 -38.584630 16.501851 -21.860762 2.062540 4.067424 7.595166 11.572939 2.139296 -2.203543 10.479046 -6.705547 -0.511607 -1.591987 -0.013278 -0.000000 -0.000000 0.000003 10.817050 -4.496441 -20.333345 0.009956 0.245475 -15.754671 0.038039 0.207047 -16.959747 0.000001 -0.000000 -0.000000 8.192546 -2.786677 -16.693604 0.044384 0.601067 -12.787677 0.083368 0.108698 -15.552616 -0.000000 0.000001 -0.000000 7.364247 -1.930037 -15.779272 -0.036713 0.194722 -11.318090 0.091605 0.716170 -13.690484 0.000001 -0.000001 -0.000000 5.974170 -0.935467 -12.117717 0.006738 0.157890 -11.523782 0.033139 0.160504 -12.289075 -0.000000 -0.000000 -0.000001 -2.473716 16.306112 -13.905141 0.000000 0.000000 0.000000 -56.841278 14.356177 13.304790 109.584341 135.172271 -124.529361 -12.518400 18.763424 11.455873 1.709463 -2.341660 0.715102 -3.375385 -7.937555 7.810756 -6.962823 17.230489 9.226008 0.000003 0.000002 -0.000002 10.848334 6.547874 27.989743 -0.004347 -0.273194 20.162274 0.038651 -0.211252 22.390193 0.000000 0.000000 0.000000 6.739371 3.239580 30.352302 0.154420 -0.605504 23.251907 0.167929 -0.067505 25.754449 -0.000001 -0.000001 0.000002 4.297158 0.478141 37.613657 0.001106 -0.262405 26.447625 0.265719 -0.683842 28.102197 0.000001 0.000000 -0.000002 1.767421 -2.429466 44.218375 0.085096 -0.207504 31.316376 0.125906 -0.179559 32.197990 0.000001 -0.000001 -0.000003 -25.597780 7.170478 13.369231 16.644440 -6.588593 2.542434 6.379427 -2.278427 -18.597328 -0.279850 1.051711 0.914552 0.000000 -0.000001 -0.000000 -11.523541 -5.322591 -21.054434 26.160955 -6.526177 -7.924566 -11.460771 -7.700869 25.567609 -2.001213 -0.963192 -1.060738 -0.000000 0.000002 -0.000000 
